<?xml version="1.0" encoding="utf-8"?><svg xmlns="http://www.w3.org/2000/svg" xmlns:xlink="http://www.w3.org/1999/xlink"><symbol viewBox="0 0 479.444 479" id="bolt" xmlns="http://www.w3.org/2000/svg"><path d="M479.445 240.223a240.001 240.001 0 00-79.652-178.57A239.994 239.994 0 00213.715 1.604c-7.832.801-15.567 2.114-23.2 3.704a225.99 225.99 0 00-4.433.976A239.764 239.764 0 0067.828 72.5a261.106 261.106 0 00-8.8 9.488c-85.2 97.813-77.262 245.621 17.921 333.746 95.184 88.125 243.164 84.672 334.133-7.793a247.832 247.832 0 008.8-9.488 239.61 239.61 0 0059.563-158.23zm-79.05 155.718c-1.262 1.305-2.567 2.559-3.856 3.832-1.488 1.465-2.976 2.946-4.504 4.368-1.328 1.238-2.695 2.398-4.055 3.64-1.554 1.375-3.097 2.75-4.68 4.078-1.402 1.168-2.823 2.297-4.25 3.434-1.597 1.281-3.198 2.559-4.847 3.793a158.563 158.563 0 01-4.422 3.2c-1.656 1.183-3.32 2.398-5.008 3.503a199.73 199.73 0 01-4.578 2.992 152.693 152.693 0 01-5.175 3.2c-1.602.937-3.13 1.847-4.704 2.753a230.409 230.409 0 01-5.343 2.95 282.16 282.16 0 01-4.801 2.504 223.912 223.912 0 01-5.512 2.68 166.11 166.11 0 01-4.914 2.241c-1.879.801-3.781 1.598-5.687 2.399-1.657.672-3.305 1.344-4.97 1.976-1.948.746-3.91 1.442-5.878 2.121-1.664.583-3.328 1.168-5.016 1.711-2 .649-4 1.243-6.039 1.825-1.672.496-3.351.992-5.039 1.449-.648.168-1.297.305-1.945.473a198.53 198.53 0 0051.129-83.028 268.669 268.669 0 0154.816 21.098c-.265.289-.488.566-.722.808zm-223.622 59.262c-2.027-.59-4.058-1.183-6.058-1.832a194.085 194.085 0 01-5.016-1.71 181.491 181.491 0 01-5.879-2.122 207.101 207.101 0 01-4.953-1.965c-1.91-.8-3.824-1.601-5.719-2.402a202.465 202.465 0 01-4.87-2.223 347.36 347.36 0 01-5.602-2.703c-1.602-.8-3.2-1.601-4.801-2.473a228.388 228.388 0 01-5.39-2.984c-1.602-.887-3.122-1.8-4.665-2.726a193.878 193.878 0 01-5.215-3.258 205.441 205.441 0 01-4.539-2.961 226.314 226.314 0 01-5.062-3.551c-1.465-1.047-2.93-2.098-4.367-3.2a211.414 211.414 0 01-4.899-3.831c-1.414-1.13-2.824-2.25-4.207-3.41-1.601-1.329-3.144-2.711-4.695-4.086-1.36-1.207-2.727-2.403-4.055-3.633-1.531-1.426-3.008-2.903-4.496-4.367-1.289-1.274-2.601-2.528-3.867-3.832-.23-.25-.453-.504-.688-.746a268.594 268.594 0 0154.817-21.102 198.58 198.58 0 0051.129 83.023c-.649-.168-1.305-.304-1.953-.48-1.614-.406-3.285-.938-4.95-1.426zM66.988 97.38a277.73 277.73 0 0060.711 24.16 415.225 415.225 0 00-16.152 110.684H15.629A223.506 223.506 0 0166.989 97.38zM78.492 84.5c1.262-1.313 2.574-2.566 3.863-3.84 1.489-1.465 2.97-2.933 4.489-4.351 1.336-1.247 2.71-2.45 4.078-3.664 1.547-1.368 3.082-2.735 4.664-4.055 1.394-1.176 2.824-2.305 4.25-3.442 1.602-1.28 3.2-2.558 4.848-3.793a158.74 158.74 0 014.425-3.199c1.653-1.183 3.317-2.398 5.008-3.504a219.14 219.14 0 014.574-3 170.758 170.758 0 015.168-3.199 247.246 247.246 0 0110.055-5.703 297.683 297.683 0 014.8-2.504 223.91 223.91 0 015.513-2.68 166.112 166.112 0 014.914-2.242c1.879-.8 3.78-1.597 5.687-2.398a227.43 227.43 0 014.977-1.985c1.933-.738 3.894-1.425 5.855-2.113 1.672-.582 3.344-1.168 5.04-1.719 1.991-.64 4-1.234 6.015-1.816 1.687-.488 3.36-.992 5.058-1.45.645-.167 1.293-.304 1.942-.472a198.53 198.53 0 00-51.13 83.027 268.548 268.548 0 01-54.812-21.097c.262-.281.485-.559.72-.801zm223.625-59.262c2.024.59 4.055 1.184 6.055 1.832 1.687.543 3.351 1.125 5.016 1.711a182.71 182.71 0 0110.832 4.086c1.91.801 3.824 1.602 5.718 2.403a209.94 209.94 0 014.875 2.222c1.864.88 3.719 1.778 5.598 2.703 1.602.801 3.2 1.602 4.8 2.473a220.85 220.85 0 015.391 2.984c1.602.887 3.121 1.801 4.664 2.727a200.464 200.464 0 015.22 3.258 216.08 216.08 0 014.534 2.96 225.515 225.515 0 015.055 3.544 181.821 181.821 0 014.383 3.199 223.379 223.379 0 014.89 3.824c1.407 1.121 2.825 2.242 4.207 3.41 1.602 1.328 3.145 2.711 4.696 4.086 1.36 1.207 2.73 2.402 4.058 3.633 1.528 1.426 3.008 2.902 4.496 4.367 1.286 1.274 2.598 2.527 3.864 3.832.23.25.453.504.687.746a268.594 268.594 0 01-54.816 21.102 198.549 198.549 0 00-51.192-83.016c.649.168 1.305.305 1.95.48 1.683.419 3.355.946 5.02 1.434zm65.223 206.985a415.225 415.225 0 00-16.152-110.684 277.807 277.807 0 0060.71-24.16 223.53 223.53 0 0151.36 134.844zm-31.746 122.71a418.824 418.824 0 00-81.117-10.472h-.266a8.001 8.001 0 10-.254 16 403.896 403.896 0 0176.613 9.742c-18.87 52.777-48.886 88.524-83.125 93.387v-79.367c0-4.422-3.582-8-8-8-4.422 0-8 3.578-8 8v79.367c-34.234-4.863-64.25-40.602-83.12-93.38 11.695-2.651 23.741-4.948 36.183-6.542a7.991 7.991 0 005.324-3.035 8.004 8.004 0 001.613-5.914 7.934 7.934 0 00-3.023-5.348 7.905 7.905 0 00-5.938-1.574 396.234 396.234 0 00-39.16 7.152 404.037 404.037 0 01-15.879-114.726 404.01 404.01 0 0115.856-114.746 424.883 424.883 0 0096.144 10.746 425.344 425.344 0 0096.14-10.746 404.153 404.153 0 0115.86 114.746 403.923 403.923 0 01-15.851 114.71zM231.445 119.989a406.013 406.013 0 01-83.12-9.785c18.878-52.758 48.886-88.484 83.12-93.351zm16 0V16.852c34.23 4.867 64.239 40.593 83.118 93.351a406.279 406.279 0 01-83.118 9.785zM111.547 248.223a415.197 415.197 0 0016.152 110.68 278.198 278.198 0 00-60.71 24.16 223.528 223.528 0 01-51.36-134.84zm239.64 110.68a415.197 415.197 0 0016.153-110.68h95.918a223.504 223.504 0 01-51.36 134.84 277.73 277.73 0 00-60.71-24.16zm0 0"/><path d="M267.258 232.223l32-80H201.41l-36.574 128h56.848l-20.641 103.3 118.863-151.3zm-81.207 32l27.426-96h62.152l-32 80h43.351l-57.136 72.695 11.36-56.695zm0 0"/></symbol></svg>