<?xml version="1.0" encoding="utf-8"?><svg xmlns="http://www.w3.org/2000/svg" xmlns:xlink="http://www.w3.org/1999/xlink"><symbol viewBox="0 0 464.892 464.983" id="baby" xmlns="http://www.w3.org/2000/svg"><path d="M463.268 143.307C460.254 119.536 452 97.445 439.07 77.211c-1.781-2.787-1.595-4.595.826-6.788 3.578-3.239 6.976-6.696 10.253-10.243 3.482-3.769 3.408-8.427.096-11.594-3.141-3.004-7.67-3.013-11.249.236-2.958 2.685-5.601 5.717-8.569 8.391-1.121 1.01-2.088 3.904-4.145 1.873-1.57-1.55-4.044-2.879-3.102-6.19 2.681-9.419-1.309-13.267-11.117-10.86-3.184.781-4.573-1.677-6.134-3.315-1.834-1.925.848-2.809 1.799-3.788 6.153-6.334 12.471-12.508 18.677-18.792 4.339-4.393 4.745-9.264 1.186-12.711-3.424-3.317-8.122-2.907-12.338 1.244-6.411 6.314-12.927 12.539-19.028 19.143-3.245 3.513-5.619 4.001-9.957 1.316-65.433-40.507-151.221-31.376-206.135 22.524-44.474 43.654-88.419 87.853-132.216 132.188C15.796 212.362.881 252.219 0 297.372c.332 9.919.984 19.537 2.607 29.092 14.811 87.241 93.284 146.757 182.805 137.589 40.421-4.14 74.822-21.246 103.509-50.169 40.013-40.342 80.32-80.393 120.492-120.577 3.888-3.889 7.88-7.69 11.54-11.786 35.338-39.555 48.949-85.89 42.315-138.214zM150.156 449.143c-69.347-8.033-126.114-64.4-134.083-133.965-5.242-45.76 8.14-86.185 39.39-119.882 21.507-23.191 44.52-44.984 66.872-67.39.556-.558 1.25-.978 2.539-1.97-30.683 113.683-22.034 221.796 40.208 323.959-5.293.701-10.167-.2-14.926-.752zm150.421-69.836c-20.506 20.639-39.774 42.725-66.882 55.468-14.721 6.92-29.962 11.85-46.09 14.027-1.829.247-3.42.739-4.77-1.325-13.05-19.949-24.149-40.905-33.538-64.04 51.595 14.511 101.614 10.442 151.191-5.489.063.798.223 1.225.089 1.359zm132.675-142.723c-7.674 14.947-17.767 28.104-29.654 39.945-19.715 19.64-39.668 39.056-58.911 59.149-8.875 9.267-18.922 15.787-30.775 20.404-35.304 13.752-71.602 21.773-109.669 20.283-19.735-.772-39.04-3.985-57.662-10.844-3.04-1.12-4.886-2.7-5.914-5.951-14.237-45.001-19.231-91.054-16.214-138.079 2.488-38.778 10.206-76.448 23.253-113.058 2.287-6.417 5.562-11.834 10.525-16.595 12.145-11.647 23.837-23.765 35.896-35.503 9.966-9.7 21.318-17.562 33.627-24.022 1.695-.889 3.289-2.405 6.326-1.429-37.401 26.64-58.709 62.438-62.21 107.828-3.489 45.237 10.657 84.608 43.686 116.052 32.035 30.497 71.035 42.693 114.707 38.172 43.747-4.529 78.395-25.669 103.898-61.918 1.533 2.662-.152 4.091-.909 5.566zm-66.08 30.767c-78.486 35.864-169.125-15.458-180.204-101.337-8.77-67.983 42.075-133.985 109.935-142.807 5.969-.776 11.939-1.062 16.185-1.188 23.363-.06 43.544 5.42 62.531 15.632 2.851 1.534 4.215 2.556 1.247 5.619-3.377 3.486-2.974 8.144.174 11.161 3.236 3.102 7.949 3.008 11.61-.568 2.678-2.615 4.85-5.558 8.62-1.266 1.501 1.709 1.472 2.642-.065 4.034-1.355 1.228-2.697 2.511-3.821 3.945-2.699 3.445-2.433 8.099.673 10.849 3.331 2.948 6.936 2.871 10.501.372.943-.661 1.597-1.751 2.562-2.364 1.599-1.017 2.441-4.791 5.375-1.518 2.163 2.412 3.856 4.477.223 7.175-2.754 2.045-4.563 4.811-4.093 8.589.741 5.956 7.947 9.382 12.412 5.188 4.481-4.208 5.378-1.309 7.142 2.021 35.237 66.534 5.94 145.871-61.007 176.463z"/><path d="M332.76 168.864c-11.523 3.756-22.06 2.182-31.196-6.009-10.758-9.645-14.093-21.341-9.269-35.193 2.038-5.853.174-10.26-4.688-11.799-4.477-1.418-8.586 1.14-10.479 6.692-1.675 4.912-2.676 9.959-2.394 15.454-.245 3.425.247 7.05 1.022 10.638 7.179 33.243 40.704 43.11 62.71 35.148 5.614-2.031 7.905-6.575 5.78-11.269-1.896-4.188-5.853-5.498-11.486-3.662zm70.523-30.771c-3.696-1.881-7.047-1.015-10.039 1.775-2.912 2.716-5.986 3.276-9.39.669-4.854-3.718-5.363-7.299-1.554-12.262 3.521-4.588 3.257-9.314-.684-12.256-3.922-2.928-8.624-1.923-12.097 2.661-3.334 4.402-4.721 9.452-4.808 15.923.35 8.258 3.449 16.023 12.392 20.074 9.184 4.161 18.201 3.472 26.382-2.606 5.546-4.119 5.33-11.164-.202-13.978zm-71.519-61.531c-3.907 2.563-7.07 2.071-10.23-1.086-3.223-3.22-3.374-6.409-.847-10.243 3.223-4.888 2.284-9.572-1.939-12.064-4.181-2.466-9.021-.979-11.752 3.969-4.517 8.185-4.469 16.616-.212 24.837 4.193 8.097 11.599 10.954 20.212 11.453 4.444.114 8.61-.864 12.482-2.993 5.28-2.904 7.119-7.618 4.717-11.928-2.47-4.43-7.241-5.349-12.431-1.945zm-68.746-2.144c-8.797-.131-16.028 6.818-16.227 15.596-.204 8.989 7 16.366 15.968 16.352a15.957 15.957 0 0015.98-15.85c.082-8.78-6.937-15.967-15.721-16.098zm111.704 95.99c-8.769.02-15.899 7.132-15.941 15.9-.042 8.789 6.99 15.945 15.777 16.055a15.937 15.937 0 0016.179-16.138c-.09-8.788-7.227-15.837-16.015-15.817z"/></symbol><symbol viewBox="0 0 479.444 479" id="bolt" xmlns="http://www.w3.org/2000/svg"><path d="M479.445 240.223a240.001 240.001 0 00-79.652-178.57A239.994 239.994 0 00213.715 1.604c-7.832.801-15.567 2.114-23.2 3.704a225.99 225.99 0 00-4.433.976A239.764 239.764 0 0067.828 72.5a261.106 261.106 0 00-8.8 9.488c-85.2 97.813-77.262 245.621 17.921 333.746 95.184 88.125 243.164 84.672 334.133-7.793a247.832 247.832 0 008.8-9.488 239.61 239.61 0 0059.563-158.23zm-79.05 155.718c-1.262 1.305-2.567 2.559-3.856 3.832-1.488 1.465-2.976 2.946-4.504 4.368-1.328 1.238-2.695 2.398-4.055 3.64-1.554 1.375-3.097 2.75-4.68 4.078-1.402 1.168-2.823 2.297-4.25 3.434-1.597 1.281-3.198 2.559-4.847 3.793a158.563 158.563 0 01-4.422 3.2c-1.656 1.183-3.32 2.398-5.008 3.503a199.73 199.73 0 01-4.578 2.992 152.693 152.693 0 01-5.175 3.2c-1.602.937-3.13 1.847-4.704 2.753a230.409 230.409 0 01-5.343 2.95 282.16 282.16 0 01-4.801 2.504 223.912 223.912 0 01-5.512 2.68 166.11 166.11 0 01-4.914 2.241c-1.879.801-3.781 1.598-5.687 2.399-1.657.672-3.305 1.344-4.97 1.976-1.948.746-3.91 1.442-5.878 2.121-1.664.583-3.328 1.168-5.016 1.711-2 .649-4 1.243-6.039 1.825-1.672.496-3.351.992-5.039 1.449-.648.168-1.297.305-1.945.473a198.53 198.53 0 0051.129-83.028 268.669 268.669 0 0154.816 21.098c-.265.289-.488.566-.722.808zm-223.622 59.262c-2.027-.59-4.058-1.183-6.058-1.832a194.085 194.085 0 01-5.016-1.71 181.491 181.491 0 01-5.879-2.122 207.101 207.101 0 01-4.953-1.965c-1.91-.8-3.824-1.601-5.719-2.402a202.465 202.465 0 01-4.87-2.223 347.36 347.36 0 01-5.602-2.703c-1.602-.8-3.2-1.601-4.801-2.473a228.388 228.388 0 01-5.39-2.984c-1.602-.887-3.122-1.8-4.665-2.726a193.878 193.878 0 01-5.215-3.258 205.441 205.441 0 01-4.539-2.961 226.314 226.314 0 01-5.062-3.551c-1.465-1.047-2.93-2.098-4.367-3.2a211.414 211.414 0 01-4.899-3.831c-1.414-1.13-2.824-2.25-4.207-3.41-1.601-1.329-3.144-2.711-4.695-4.086-1.36-1.207-2.727-2.403-4.055-3.633-1.531-1.426-3.008-2.903-4.496-4.367-1.289-1.274-2.601-2.528-3.867-3.832-.23-.25-.453-.504-.688-.746a268.594 268.594 0 0154.817-21.102 198.58 198.58 0 0051.129 83.023c-.649-.168-1.305-.304-1.953-.48-1.614-.406-3.285-.938-4.95-1.426zM66.988 97.38a277.73 277.73 0 0060.711 24.16 415.225 415.225 0 00-16.152 110.684H15.629A223.506 223.506 0 0166.989 97.38zM78.492 84.5c1.262-1.313 2.574-2.566 3.863-3.84 1.489-1.465 2.97-2.933 4.489-4.351 1.336-1.247 2.71-2.45 4.078-3.664 1.547-1.368 3.082-2.735 4.664-4.055 1.394-1.176 2.824-2.305 4.25-3.442 1.602-1.28 3.2-2.558 4.848-3.793a158.74 158.74 0 014.425-3.199c1.653-1.183 3.317-2.398 5.008-3.504a219.14 219.14 0 014.574-3 170.758 170.758 0 015.168-3.199 247.246 247.246 0 0110.055-5.703 297.683 297.683 0 014.8-2.504 223.91 223.91 0 015.513-2.68 166.112 166.112 0 014.914-2.242c1.879-.8 3.78-1.597 5.687-2.398a227.43 227.43 0 014.977-1.985c1.933-.738 3.894-1.425 5.855-2.113 1.672-.582 3.344-1.168 5.04-1.719 1.991-.64 4-1.234 6.015-1.816 1.687-.488 3.36-.992 5.058-1.45.645-.167 1.293-.304 1.942-.472a198.53 198.53 0 00-51.13 83.027 268.548 268.548 0 01-54.812-21.097c.262-.281.485-.559.72-.801zm223.625-59.262c2.024.59 4.055 1.184 6.055 1.832 1.687.543 3.351 1.125 5.016 1.711a182.71 182.71 0 0110.832 4.086c1.91.801 3.824 1.602 5.718 2.403a209.94 209.94 0 014.875 2.222c1.864.88 3.719 1.778 5.598 2.703 1.602.801 3.2 1.602 4.8 2.473a220.85 220.85 0 015.391 2.984c1.602.887 3.121 1.801 4.664 2.727a200.464 200.464 0 015.22 3.258 216.08 216.08 0 014.534 2.96 225.515 225.515 0 015.055 3.544 181.821 181.821 0 014.383 3.199 223.379 223.379 0 014.89 3.824c1.407 1.121 2.825 2.242 4.207 3.41 1.602 1.328 3.145 2.711 4.696 4.086 1.36 1.207 2.73 2.402 4.058 3.633 1.528 1.426 3.008 2.902 4.496 4.367 1.286 1.274 2.598 2.527 3.864 3.832.23.25.453.504.687.746a268.594 268.594 0 01-54.816 21.102 198.549 198.549 0 00-51.192-83.016c.649.168 1.305.305 1.95.48 1.683.419 3.355.946 5.02 1.434zm65.223 206.985a415.225 415.225 0 00-16.152-110.684 277.807 277.807 0 0060.71-24.16 223.53 223.53 0 0151.36 134.844zm-31.746 122.71a418.824 418.824 0 00-81.117-10.472h-.266a8.001 8.001 0 10-.254 16 403.896 403.896 0 0176.613 9.742c-18.87 52.777-48.886 88.524-83.125 93.387v-79.367c0-4.422-3.582-8-8-8-4.422 0-8 3.578-8 8v79.367c-34.234-4.863-64.25-40.602-83.12-93.38 11.695-2.651 23.741-4.948 36.183-6.542a7.991 7.991 0 005.324-3.035 8.004 8.004 0 001.613-5.914 7.934 7.934 0 00-3.023-5.348 7.905 7.905 0 00-5.938-1.574 396.234 396.234 0 00-39.16 7.152 404.037 404.037 0 01-15.879-114.726 404.01 404.01 0 0115.856-114.746 424.883 424.883 0 0096.144 10.746 425.344 425.344 0 0096.14-10.746 404.153 404.153 0 0115.86 114.746 403.923 403.923 0 01-15.851 114.71zM231.445 119.989a406.013 406.013 0 01-83.12-9.785c18.878-52.758 48.886-88.484 83.12-93.351zm16 0V16.852c34.23 4.867 64.239 40.593 83.118 93.351a406.279 406.279 0 01-83.118 9.785zM111.547 248.223a415.197 415.197 0 0016.152 110.68 278.198 278.198 0 00-60.71 24.16 223.528 223.528 0 01-51.36-134.84zm239.64 110.68a415.197 415.197 0 0016.153-110.68h95.918a223.504 223.504 0 01-51.36 134.84 277.73 277.73 0 00-60.71-24.16zm0 0"/><path d="M267.258 232.223l32-80H201.41l-36.574 128h56.848l-20.641 103.3 118.863-151.3zm-81.207 32l27.426-96h62.152l-32 80h43.351l-57.136 72.695 11.36-56.695zm0 0"/></symbol></svg>